# xmcd
#
# Track frame offsets:
#	150
#	20590
#	41507
#	62005
#	77162
#	83387
#	103132
#	118385
#	137882
#	152670
#	159835
#	179102
#	195630
#	211167
#
# Disc length: 3565 seconds
#
# Revision: 0
# Processed by: cddbd v1.5.1PL0 Copyright (c) Steve Scherf et al.
# Submitted via: audiograbber 1.81.02
#
DISCID=ba0deb0e
DTITLE=Verschiedene - Mit Liebe beschenkt (www.gerth.de)
DYEAR=2005
DGENRE=Chanson
TTITLE0=Bei dir
TTITLE1=Es ist deine Liebe
TTITLE2=Wie die Sonne
TTITLE3=My love
TTITLE4=Ja-Da
TTITLE5=Mein Herz
TTITLE6=Dank sei dir, Herr
TTITLE7=Er ist die Quelle
TTITLE8=Schwarz oder weiﬂ
TTITLE9=Honey
TTITLE10=Sei willkommen
TTITLE11=In deinen H‰nden
TTITLE12=Du bist ein Geschenk
TTITLE13=Ich lade dich ein
EXTD=
EXTT0=
EXTT1=
EXTT2=
EXTT3=
EXTT4=
EXTT5=
EXTT6=
EXTT7=
EXTT8=
EXTT9=
EXTT10=
EXTT11=
EXTT12=
EXTT13=
PLAYORDER=
